<?xml version="1.0" encoding="utf-8"?>
<!-- Generator: Adobe Illustrator 23.0.0, SVG Export Plug-In . SVG Version: 6.00 Build 0)  -->
<svg version="1.1" id="Layer_1" xmlns="http://www.w3.org/2000/svg" xmlns:xlink="http://www.w3.org/1999/xlink" x="0px" y="0px"
	 viewBox="0 0 348.9 118.2" style="enable-background:new 0 0 348.9 118.2;" xml:space="preserve">
<style type="text/css">
	.st0{fill:#FFFFFF;}
</style>
<g>
	<path class="st0" d="M13.9,52.4C18.1,34,36.4,22.3,54.9,26.4C69.8,29.7,91.1,45.4,93,78c-0.1,0-11.3-15-11.4-15
		c-0.1,1.4-0.4,2.9-0.7,4.3C76.9,85.8,58.5,97.5,40,93.4C21.5,89.3,9.8,71,13.9,52.4z M47.5,49.1c-6,0-10.8,4.8-10.8,10.8
		c0,6,4.8,10.8,10.8,10.8c6,0,10.8-4.8,10.8-10.8C58.3,53.9,53.4,49.1,47.5,49.1z"/>
</g>
<g>
	<path class="st0" d="M114.2,44.3h-9.9V35h29.8v9.3h-10V86h-9.9V44.3z"/>
	<path class="st0" d="M142.7,70.1c0.4,2.5,4,7.9,10.6,7.9c4.1,0,7.1-1.7,8.8-4.9h9.7c-2.2,6.9-9.5,13.3-18.5,13.3
		c-11.4,0-20.3-9.1-20.3-20.3c0-10.9,8.3-20.8,20.2-20.8c12.2,0,19.9,10.5,19.9,20.2c0,1.8-0.3,3.4-0.6,4.6H142.7z M163.6,62.7
		c-1-6.1-5.8-9-10.3-9c-3.4,0-9.1,1.9-10.9,9H163.6z"/>
	<path class="st0" d="M187.8,65.3l-12.4-19.4h10.8l7.4,12.1l7.3-12.1h10.8l-12.4,19.4L213.5,86h-11.4l-8.6-13.7L184.9,86h-11.4
		L187.8,65.3z"/>
	<path class="st0" d="M234.5,56.8c-0.7-3.2-2.8-3.5-3.8-3.5c-2.4,0-3.7,1.8-3.7,3.5c0,2.3,1.7,2.8,6.8,4.5c5,1.5,11.2,3.9,11.2,12
		c0,9-7.1,14-14,14c-4,0-8.9-1.4-12-5.3c-2.4-3-2.8-6.2-3-8.7h9.9c0.4,1.8,1.3,5.1,5.3,5.1c3.1,0,4.3-2.4,4.3-4c0-3-2.2-3.7-9-6
		c-4.5-1.5-9-4.9-9-11.5c0-7.8,7-12.4,13.4-12.4c6,0,12.7,4.3,13.1,12.3H234.5z"/>
	<path class="st0" d="M272.8,45.9h8.8v3.4h0.1c0.8-1.3,3.6-4.8,10.5-4.8c2.2,0,7.8,0.5,11.6,6.3c4.2-6,10.1-6.3,12.9-6.3
		c7.9,0,11.8,4.2,13.2,6.2c1.6,2.1,3,5.9,3,11.9V86h-9.6V63.7c0-2.3,0-10.4-7.6-10.4c-2.7,0-5.3,1.4-6.7,3.7
		c-1.5,2.4-1.4,6.4-1.4,8.9v20h-9.6V63.7c0-5.5-2.1-10.4-8-10.4c-7.6,0-7.6,8.4-7.6,12.6v20h-9.6V45.9z"/>
	<path class="st0" d="M252.9,35h9.6v8.8h-9.6V35z M252.9,45.9h9.6V86h-9.6V45.9z"/>
</g>
</svg>
